<svg width="20" height="20" xmlns="http://www.w3.org/2000/svg">

 <g>
  <title>Layer 1</title>
  <path id="svg_1" d="m17.1,2.9c-1.9,-1.9 -4.4,-2.9 -7.1,-2.9c-5.5,0 -10,4.5 -10,10c0,1.8 0.5,3.5 1.3,5l-1.3,5l5.2,-1.2c1.5,0.8 3.1,1.2 4.8,1.2l0,0c5.5,0 10,-4.5 10,-10c0,-2.7 -1,-5.2 -2.9,-7.1zm-7.1,15.1c-1.3,0 -2.7,-0.3 -3.8,-1l-0.7,-0.4l-0.7,0.2l-2,0.5l0.5,-1.8l0.2,-0.8l-0.4,-0.7c-0.7,-1.2 -1.1,-2.6 -1.1,-4c0,-4.4 3.6,-8 8,-8c2.1,0 4.1,0.8 5.7,2.3c1.5,1.6 2.3,3.6 2.3,5.7c0,4.4 -3.6,8 -8,8z"/>
  <path id="svg_2" d="m14.85,13.48889c-0.2,0.6 -1.2,1.1 -1.7,1.2c-0.5,0 -0.9,0.2 -3,-0.6c-2.5,-1 -4.1,-3.6 -4.3,-3.8c-0.1,-0.2 -1,-1.4 -1,-2.6s0.6,-1.8 0.9,-2.1c0.2,-0.3 0.5,-0.3 0.7,-0.3c0.2,0 0.3,0 0.5,0c0.2,0 0.4,0 0.6,0.4c0.2,0.5 0.7,1.7 0.8,1.9s0.1,0.3 0,0.4s-0.1,0.3 -0.2,0.4c-0.1,0.1 -0.3,0.3 -0.4,0.4c-0.1,0.1 -0.3,0.3 -0.1,0.5c0.1,0.3 0.6,1.1 1.4,1.7c1,0.9 1.8,1.1 2,1.2c0.3,0.1 0.4,0.1 0.5,-0.1c0.1,-0.2 0.6,-0.7 0.8,-1s0.3,-0.2 0.6,-0.1s1.5,0.7 1.7,0.8c0.3,0.1 0.4,0.2 0.5,0.3c-0.1,0.3 -0.1,0.8 -0.3,1.4z"/>
 </g>
</svg>