<?xml version="1.0" encoding="UTF-8"?>
<svg version="1.1" xmlns="http://www.w3.org/2000/svg" width="2000" height="416">
<path d="M0 0 C0.66268566 -0.00367669 1.32537132 -0.00735338 2.00813836 -0.01114148 C4.22167602 -0.02212607 6.43516665 -0.02601334 8.64872742 -0.02983093 C10.23924914 -0.0360999 11.8297694 -0.04274708 13.42028809 -0.04974365 C18.64054858 -0.07074785 23.86080923 -0.08114768 29.08110046 -0.09111023 C30.88391319 -0.09516017 32.68672577 -0.09927716 34.48953819 -0.10346031 C42.96738665 -0.12250978 51.44522645 -0.1367372 59.92309219 -0.14507228 C69.67662226 -0.15482193 79.42992402 -0.18108284 89.18337375 -0.22157317 C96.74120111 -0.25185997 104.29896352 -0.26655329 111.85685033 -0.26985329 C116.36111451 -0.27219091 120.86513475 -0.28098068 125.36933327 -0.30631447 C129.61708172 -0.32981895 133.86442954 -0.33373995 138.11222649 -0.32355309 C139.65841642 -0.32306288 141.2046276 -0.3292283 142.75075531 -0.34310913 C156.77866363 -0.46184413 169.80295947 1.93228324 182.59281921 7.95967102 C183.72107117 8.47896179 183.72107117 8.47896179 184.87211609 9.00874329 C201.90390388 17.0175644 216.81863611 28.98512719 224.10379028 46.84069824 C229.26202575 61.33720972 229.86821493 75.57893505 229.77641296 90.81513977 C229.77656846 92.95066375 229.77806576 95.086188 229.78082275 97.22171021 C229.78219612 101.66501062 229.76982539 106.10798407 229.74687195 110.55122375 C229.7184387 116.20597544 229.72125343 121.8601874 229.73396206 127.51497936 C229.74096158 131.91372172 229.7330823 136.31234232 229.72070503 140.71106911 C229.71623564 142.79477278 229.71581354 144.87848973 229.71977043 146.96219444 C229.73640512 163.41715798 228.68033752 178.11322579 221.28031921 193.14717102 C220.87297546 193.98635071 220.46563171 194.8255304 220.04594421 195.69013977 C213.29274151 208.18356476 202.48750386 216.44810628 190.28031921 223.14717102 C189.20266296 223.74787415 188.12500671 224.34857727 187.01469421 224.96748352 C184.4475019 226.38273057 181.87141686 227.77632978 179.28031921 229.14717102 C180.69132391 232.97083297 182.46880534 236.30329545 184.59672546 239.77607727 C185.26961609 240.87887024 185.94250671 241.98166321 186.63578796 243.11787415 C187.3714348 244.31515836 188.10711275 245.51242345 188.84281921 246.70967102 C189.60884779 247.96267959 190.37446564 249.21593934 191.13969421 250.46943665 C192.72941327 253.07278903 194.32089245 255.67505276 195.91362 258.27656555 C199.20104992 263.64912413 202.46694307 269.03472125 205.73292542 274.42033386 C207.49769328 277.32990496 209.2640947 280.23848403 211.03031921 283.14717102 C211.73866024 284.31383301 212.44699358 285.48049968 213.15531921 286.64717102 C213.50594421 287.22467102 213.85656921 287.80217102 214.21781921 288.39717102 C217.40531922 293.64717103 217.40531922 293.64717103 218.46772766 295.39703369 C219.17635024 296.56416779 219.88498876 297.73129222 220.59364319 298.89840698 C222.36018154 301.80784295 224.12644623 304.71744435 225.89213562 307.62739563 C229.13050974 312.96378765 232.37123919 318.29869482 235.62158203 323.62780762 C249.23714403 345.95128775 249.23714403 345.95128775 255.71781921 357.08467102 C256.16045105 357.84143127 256.60308289 358.59819153 257.05912781 359.37788391 C261.11841642 366.41121611 263.27642709 371.90091084 262.28031921 380.14717102 C260.01140811 387.72832311 254.48193748 393.0933027 247.96781921 397.27217102 C246.74571585 397.9108721 245.51564306 398.53443071 244.28031921 399.14717102 C243.44758484 399.58158508 242.61485046 400.01599915 241.75688171 400.46357727 C234.06241057 404.423635 226.7697155 407.04371993 218.06156921 404.49873352 C208.7593267 400.31272439 204.26284392 391.1188932 199.42198181 382.65800476 C197.93542412 380.06024918 196.432654 377.47199825 194.93070984 374.88311768 C194.16008983 373.55467219 193.39023496 372.22578257 192.62113953 370.89645386 C189.112774 364.83738923 185.52151534 358.82996948 181.90531921 352.83467102 C176.09705285 343.18997428 170.33508634 333.5187356 164.59281921 323.83467102 C159.0581717 314.50183461 153.51065785 305.17754407 147.91630554 295.88032532 C144.4342827 290.08655123 140.97035433 284.28212374 137.53211975 278.46224976 C135.45588162 274.95069829 133.36079696 271.45370131 131.22026062 267.98091125 C127.55851649 261.99981382 124.16276003 256.33650556 121.83500671 249.68232727 C118.7934726 241.54262945 118.7934726 241.54262945 112.28031921 236.14717102 C101.35523746 233.51220218 89.25106321 234.34986477 78.13111877 235.12944031 C72.39996532 235.45047466 68.50440263 234.58988086 63.28031921 232.14717102 C58.01045346 227.11152152 55.24536774 220.98498967 54.88188171 213.74482727 C54.86889531 212.23314411 54.87712004 210.72114693 54.90531921 209.20967102 C54.91619568 208.41915344 54.92707214 207.62863586 54.9382782 206.81416321 C55.11585489 200.31954697 55.39550322 194.41662915 59.86235046 189.35420227 C65.21083135 184.44851501 69.94887626 182.90342454 77.22270203 182.86006165 C77.90147903 182.85322861 78.58025604 182.84639557 79.27960205 182.83935547 C80.74729884 182.82581317 82.2150422 182.81673061 83.68279266 182.81164551 C86.01297142 182.80331547 88.34276588 182.78277053 90.6728363 182.7591095 C95.62527305 182.71098343 100.57774869 182.67801881 105.53031921 182.64717102 C111.25906596 182.61137767 116.98762545 182.569216 122.71619415 182.51123047 C124.99876509 182.4913323 127.28118845 182.48287572 129.56382751 182.47492981 C140.71212289 182.39333884 150.68716428 182.01346135 159.28031921 174.14717102 C165.14527505 166.54027317 167.58315873 158.76833067 167.57084656 149.18330383 C167.57756378 148.41966522 167.58428101 147.65602661 167.59120178 146.86924744 C167.61008583 144.36286275 167.61410131 141.85674728 167.61625671 139.35029602 C167.6226921 137.59303176 167.62942101 135.83576854 167.63642883 134.07850647 C167.64837822 130.40019754 167.65211215 126.72198235 167.65092468 123.0436554 C167.65072181 118.35553463 167.67800127 113.66802222 167.7124691 108.98004532 C167.73482879 105.35093994 167.73875943 101.72197876 167.73770523 98.09281158 C167.74004843 96.36582599 167.74879884 94.63883563 167.76436996 92.91191864 C167.86076303 81.11583303 167.64201009 70.40475734 159.28031921 61.14717102 C159.28031921 60.48717102 159.28031921 59.82717102 159.28031921 59.14717102 C150.42016826 54.57981399 142.52659162 52.55246106 132.56669617 52.60127258 C131.45318283 52.59093491 130.33966949 52.58059723 129.19241333 52.56994629 C125.55099156 52.54070025 121.91013003 52.53902292 118.26860046 52.53779602 C115.72840323 52.52280216 113.18821571 52.50607249 110.64804077 52.48768616 C104.67016068 52.44857549 98.69246687 52.42683138 92.71449393 52.41371226 C85.90169624 52.39777614 79.08908155 52.35933325 72.27639067 52.31911898 C58.27776202 52.23698525 44.27913821 52.18272803 30.28031921 52.14717102 C30.28107865 52.83990755 30.2818381 53.53264409 30.28262055 54.24637264 C30.3273794 95.30609287 30.36169371 136.36581026 30.38244987 177.42554998 C30.38495128 182.35595039 30.38753992 187.28635076 30.3901825 192.2167511 C30.39070712 193.19830256 30.39123174 194.17985403 30.39177226 195.19114948 C30.4004742 211.08303237 30.41624303 226.97490078 30.43462481 242.86677509 C30.45332969 259.17402659 30.46443719 275.48127052 30.4684962 291.78853232 C30.47124003 301.85048033 30.47990544 311.91238744 30.49615215 321.97432286 C30.50672628 328.87472643 30.50991886 335.77510886 30.50732197 342.67551994 C30.50604135 346.65631176 30.50800078 350.6370321 30.51873016 354.6178112 C30.52848982 358.26550362 30.52893656 361.91307674 30.522117 365.56077475 C30.52087693 367.49868527 30.52947834 369.43659447 30.53848183 371.37448448 C30.50702788 380.56839287 30.29051518 388.76321597 24.28031921 396.14717102 C17.24144694 402.99051906 9.23254551 403.65181728 -0.09468079 403.58467102 C-1.07179016 403.60465149 -2.04889954 403.62463196 -3.05561829 403.6452179 C-10.94514907 403.6399722 -17.79080345 402.14419925 -24.15718079 397.28779602 C-24.93061829 396.35193665 -24.93061829 396.35193665 -25.71968079 395.39717102 C-26.52405579 394.4767804 -26.52405579 394.4767804 -27.34468079 393.53779602 C-31.72618402 385.91995517 -31.00256003 377.1600713 -30.97364807 368.66136169 C-30.97595446 367.18490409 -30.97913219 365.70844763 -30.98310256 364.23199356 C-30.99143484 360.18757965 -30.98733239 356.1432604 -30.98113012 352.0988462 C-30.97660015 347.73201345 -30.98359216 343.36519684 -30.98908997 338.99836731 C-30.99798022 330.44821834 -30.99606346 321.89810451 -30.99026468 313.34795417 C-30.98574617 306.39742647 -30.98513612 299.4469086 -30.98731232 292.49637985 C-30.98777202 291.01196759 -30.98777202 291.01196759 -30.988241 289.4975672 C-30.98888046 287.48711078 -30.98952889 285.47665437 -30.99018618 283.46619795 C-30.99588855 264.61617917 -30.98933335 245.76617985 -30.97858545 226.91616426 C-30.9696528 210.74950442 -30.97119981 194.58287331 -30.98042297 178.41621399 C-30.99113201 159.63630159 -30.99533633 140.85640626 -30.98919845 122.07649124 C-30.98856136 120.07285873 -30.98793262 118.06922623 -30.98731232 116.06559372 C-30.98700377 115.07980927 -30.98669521 114.09402481 -30.98637731 113.0783681 C-30.98465207 106.13893786 -30.98756186 99.19951844 -30.99227142 92.26008987 C-30.99788741 83.79914412 -30.99634881 75.33823547 -30.98570994 66.87729396 C-30.98046248 62.56216096 -30.97838065 58.24708976 -30.98500824 53.93195724 C-30.99098916 49.97797305 -30.98765736 46.02410765 -30.97705314 42.07013415 C-30.97482814 40.64355726 -30.97593506 39.21697024 -30.98080471 37.79039992 C-31.04723091 16.70507811 -31.04723091 16.70507811 -24.71968079 9.14717102 C-17.40451476 2.15712348 -9.86393955 0.03560243 0 0 Z " fill="#D5B162" transform="translate(49.71968078613281,4.8528289794921875)"/>
<path d="M0 0 C1.59155921 -0.00543265 3.18311338 -0.01256167 4.7746582 -0.02124023 C9.06426873 -0.03934686 13.35349082 -0.03245735 17.64310741 -0.01972389 C22.15728408 -0.00952299 26.67142979 -0.01900975 31.18560791 -0.02526855 C38.76767884 -0.03252745 46.34959348 -0.02300672 53.93164062 -0.00390625 C62.65902454 0.01782765 71.38603406 0.0108294 80.1134088 -0.01121187 C87.64168396 -0.02945389 95.16984737 -0.03188054 102.69813752 -0.0214572 C107.17878223 -0.01526628 111.65925195 -0.01426307 116.13988495 -0.02760315 C120.35905672 -0.03928894 124.5777537 -0.03090788 128.796875 -0.00802612 C130.33176135 -0.00280475 131.86668872 -0.00413763 133.40155792 -0.01307678 C150.23656311 -0.1019677 164.75154715 4.07449333 179.83691406 11.51757812 C180.4534082 11.81647949 181.06990234 12.11538086 181.70507812 12.42333984 C197.72834202 20.34076767 210.02571268 33.07625656 216.01719284 50.1606369 C217.98159773 56.11825775 219.24171462 62.12540523 219.953125 68.359375 C220.03678188 69.08797478 220.12043877 69.81657455 220.20663071 70.56725311 C221.11110379 79.13756796 221.12650096 87.6899198 221.10253906 96.29882812 C221.10389224 98.04984592 221.10583815 99.80086335 221.1083374 101.55187988 C221.11125803 105.19233841 221.10709111 108.8326977 221.09765625 112.47314453 C221.08626364 117.08847205 221.09283976 121.70356677 221.10480118 126.3188858 C221.11210344 129.92590012 221.10969395 133.53286121 221.10454559 137.13987732 C221.10323209 138.83955413 221.10477386 140.53923613 221.1095047 142.23890686 C221.12806825 150.77755329 220.9269712 159.20888795 219.9609375 167.69921875 C219.88558903 168.37180473 219.81024055 169.04439072 219.7326088 169.73735809 C217.50428868 187.29642865 209.0517042 203.92905119 195.04736328 214.92236328 C187.4197011 220.48731128 179.23683469 225.22156882 170.83691406 229.51757812 C170.83691406 232.69038442 172.60979561 234.78362245 174.20410156 237.49414062 C174.5543187 238.09165634 174.90453583 238.68917206 175.2653656 239.30479431 C176.40959718 241.25348173 177.56046771 243.19814643 178.71191406 245.14257812 C179.50133636 246.48227235 180.29064278 247.82203486 181.07983398 249.16186523 C185.39634793 256.47508907 189.76973064 263.74537566 194.31469727 270.91943359 C197.42013562 275.82371814 200.42229646 280.78444326 203.39941406 285.76757812 C208.24213177 293.87063775 213.12251625 301.95021844 218.02441406 310.01757812 C218.74512716 311.20425827 219.46583024 312.39094449 220.18652344 313.57763672 C223.54594774 319.1080709 226.90846798 324.63659735 230.27708435 330.16143799 C231.78945677 332.64241436 233.30039429 335.12426305 234.81118774 337.60620117 C235.85700649 339.32296401 236.90490012 341.03846233 237.95288086 342.75390625 C241.42510883 348.45867798 244.85366932 354.18804601 248.20800781 359.96289062 C248.85568115 361.07422363 249.50335449 362.18555664 250.1706543 363.33056641 C253.67414349 370.03159908 254.48830177 375.18206606 252.83691406 382.51757812 C246.54685038 394.4237701 234.20692417 401.39424142 221.83691406 405.51757812 C214.14112673 406.21719516 208.82020799 405.2736107 202.40820312 400.8371582 C199.39500871 398.11893183 197.50025374 395.13675299 195.50878906 391.65429688 C195.11548401 390.98525833 194.72217896 390.31621979 194.31695557 389.62690735 C193.06431525 387.49157291 191.82531852 385.34869382 190.58691406 383.20507812 C189.77143 381.80805503 188.95503066 380.4115658 188.13769531 379.015625 C186.91265166 376.92237626 185.68860176 374.82859223 184.46835327 372.73254395 C181.4151253 367.48877967 178.31001902 362.27819404 175.18063354 357.0796051 C172.54812402 352.70595667 169.93247408 348.3226945 167.32910156 343.93164062 C166.95527344 343.30117325 166.58144531 342.67070587 166.19628906 342.02113342 C165.42985004 340.72824865 164.66349362 339.4353149 163.8972168 338.14233398 C157.73791897 327.75081832 151.56194434 317.36989808 145.33691406 307.01757812 C139.1606074 296.7462124 133.03607653 286.44475817 126.92236328 276.13607788 C121.00502904 266.15920134 115.06538147 256.19626969 109.08691406 246.25585938 C108.69632813 245.60439941 108.30574219 244.95293945 107.90332031 244.28173828 C106.95897136 242.719498 105.99323176 241.17023203 105.02441406 239.62304688 C103.83691406 237.51757812 103.83691406 237.51757812 103.83691406 235.51757812 C102.02888306 235.53328857 102.02888306 235.53328857 100.18432617 235.54931641 C95.69102983 235.58565301 91.19774637 235.6085282 86.7043457 235.62744141 C84.76356824 235.63746792 82.82280576 235.65109256 80.88208008 235.66845703 C78.08443491 235.69285301 75.28699035 235.70409494 72.48925781 235.71289062 C71.62856186 235.7232132 70.76786591 235.73353577 69.88108826 235.74417114 C63.69701239 235.74530994 58.59789076 235.12279714 53.14941406 231.95507812 C46.3257898 224.76260931 45.52560227 215.35225863 45.62207031 205.87695312 C46.11717155 198.13537019 48.1099454 191.85407165 53.83691406 186.51757812 C58.77825168 184.01131234 62.38920873 183.14031619 68.00634766 183.11694336 C68.68541672 183.10996429 69.36448578 183.10298523 70.06413269 183.09579468 C72.28800187 183.07595371 74.51140212 183.07631856 76.73535156 183.07617188 C78.29563628 183.06438292 79.85590979 183.05101501 81.41616821 183.03614807 C85.51272731 183.00006891 89.60918711 182.97979733 93.70587158 182.96459961 C100.25427727 182.93971953 106.80246335 182.89974297 113.35066605 182.84269905 C115.62440532 182.82651667 117.89793297 182.82260571 120.17172241 182.81968689 C131.67704628 182.76119235 141.91641446 182.26226827 150.52832031 173.86914062 C159.19487525 163.573534 159.42603197 150.36851414 159.29785156 137.59570312 C159.2954595 135.99916738 159.29456342 134.40262877 159.29507446 132.80609131 C159.29197117 129.48463938 159.27559367 126.16362667 159.24853516 122.84228516 C159.21444756 118.6071569 159.20691135 114.37250607 159.20842552 110.13725662 C159.20787932 106.84964531 159.196874 103.56213615 159.18242264 100.27455902 C159.17610836 98.71341471 159.17212849 97.15225897 159.17063522 95.5911026 C159.14256985 81.60007767 158.22945428 68.91011834 147.83691406 58.51757812 C142.42356957 55.13558845 137.38069497 53.40819654 130.99005127 53.35935974 C130.0169249 53.34957092 129.04379852 53.3397821 128.04118347 53.32969666 C126.98022964 53.32394119 125.91927582 53.31818573 124.82617188 53.31225586 C123.70392715 53.30235626 122.58168243 53.29245667 121.4254303 53.28225708 C117.71365473 53.25065355 114.00186636 53.22588904 110.29003906 53.20117188 C107.71742417 53.18060137 105.14481266 53.15960487 102.57220459 53.13819885 C96.49143832 53.08863222 90.41065394 53.04336429 84.32983947 53.00017649 C77.40602659 52.95076176 70.48226062 52.89585936 63.55849314 52.8404969 C49.31801086 52.72675286 35.07748278 52.61989737 20.83691406 52.51757812 C20.83805322 53.21915826 20.83919238 53.92073839 20.84036607 54.64357853 C20.90749405 96.22095718 20.95897059 137.79832955 20.99011005 179.3757515 C20.99386219 184.36752583 20.99774516 189.35930005 21.00170898 194.35107422 C21.00249592 195.34485045 21.00328285 196.33862669 21.00409362 197.36251736 C21.01714906 213.45554751 21.04080368 229.54854553 21.06837245 245.64155662 C21.09642279 262.15333444 21.11308954 278.66509543 21.11917955 295.1768961 C21.12329675 305.36631306 21.1363027 315.55563919 21.16066346 325.7450282 C21.17651605 332.7313981 21.1813155 339.717721 21.17741819 346.70410758 C21.17549591 350.73544143 21.17845166 354.76661649 21.19453049 358.79792213 C21.2091512 362.49063558 21.20985245 366.18308378 21.19961075 369.87580955 C21.19774711 371.840316 21.21066638 373.80481943 21.22415799 375.76928043 C21.18396138 383.68255813 20.77069324 389.93184801 15.58691406 396.26757812 C7.66405933 402.74991382 1.09978568 403.71496545 -8.85058594 403.76757812 C-10.2843457 403.79851562 -10.2843457 403.79851562 -11.74707031 403.83007812 C-19.56942293 403.87273581 -25.89453535 402.67605493 -32.47558594 398.33007812 C-39.89380276 390.56682797 -39.73916966 382.97493927 -39.67102051 372.73478699 C-39.67563308 371.22603912 -39.6819884 369.71729574 -39.68992949 368.20856172 C-39.70659767 364.07477425 -39.69838792 359.94135708 -39.68598461 355.80756843 C-39.67692589 351.34458232 -39.69090809 346.88165942 -39.7019043 342.41868591 C-39.71968663 333.67967143 -39.71585042 324.94079441 -39.70425373 316.20177456 C-39.69521684 309.09726138 -39.69399653 301.9927867 -39.698349 294.88826942 C-39.69896193 293.87674708 -39.69957486 292.86522474 -39.70020637 291.8230502 C-39.70148529 289.76806351 -39.70278214 287.71307682 -39.70409673 285.65809015 C-39.71550215 266.38930703 -39.70239033 247.12060003 -39.68089527 227.85182939 C-39.66303246 211.32785786 -39.66612175 194.80399878 -39.68457031 178.2800293 C-39.70599171 159.08441753 -39.71439496 139.88887253 -39.70212126 120.69325048 C-39.70084709 118.64494504 -39.69958961 116.59663958 -39.698349 114.54833412 C-39.6977319 113.5405775 -39.69711479 112.53282088 -39.69647899 111.49452617 C-39.6930293 104.40226592 -39.69884641 97.3100481 -39.70826721 90.21779442 C-39.71950303 81.56909041 -39.71641422 72.92053156 -39.69514424 64.27184411 C-39.68465387 59.86133922 -39.68047741 55.45107606 -39.69374084 51.04057312 C-39.70571298 46.99820753 -39.69902339 42.95630636 -39.67783064 38.91398255 C-39.67338479 37.45643594 -39.6755852 35.9988496 -39.68533379 34.54132881 C-39.7457229 24.75725771 -39.42363866 14.46061916 -32.16308594 7.08007812 C-22.65794376 0.11425543 -11.29284951 -0.06538927 0 0 Z " fill="#D5B162" transform="translate(1436.1630859375,4.482421875)"/>
<path d="M0 0 C1.06753243 -0.00551503 1.06753243 -0.00551503 2.15663117 -0.01114148 C4.53600269 -0.02213408 6.91533046 -0.02601471 9.29472351 -0.02983093 C11.00347023 -0.03609925 12.71221559 -0.04274638 14.42095947 -0.04974365 C20.03080807 -0.07075421 25.64065683 -0.08114778 31.25053406 -0.09111023 C33.1870748 -0.09515983 35.12361541 -0.09927682 37.06015587 -0.10346031 C46.16591323 -0.1225106 55.27166253 -0.13673826 64.37743598 -0.14507228 C74.85768539 -0.15482444 85.33772246 -0.1810917 95.81789714 -0.22157317 C103.9362293 -0.251845 112.054501 -0.26655186 120.17288846 -0.26985329 C125.01249352 -0.27219245 129.85187173 -0.28100307 134.69141579 -0.30631447 C139.25433411 -0.32979263 143.81687942 -0.33375011 148.37984276 -0.32355309 C150.04213587 -0.32306227 151.70444858 -0.32924641 153.36668396 -0.34310913 C178.48452637 -0.5406297 203.19251832 8.34379009 221.61381531 25.81123352 C236.19692354 41.21882844 240.98364379 61.15832868 240.9651947 81.78948975 C240.96965139 83.36208568 240.96965139 83.36208568 240.9741981 84.96645123 C240.98284563 88.46737317 240.98439002 91.96826075 240.98588562 95.4691925 C240.99051667 97.98463005 240.99554171 100.50006689 241.00093079 103.01550293 C241.01403103 109.84239947 241.02053271 116.66928478 241.02494144 123.49619174 C241.02771151 127.76652636 241.03195029 132.03685874 241.03644562 136.30719185 C241.04863414 148.151621 241.05893347 159.99604838 241.06232071 171.84048367 C241.06254028 172.59756984 241.06275984 173.35465602 241.06298606 174.13468421 C241.06320434 174.89349318 241.06342262 175.65230215 241.06364751 176.43410534 C241.06409096 177.97151721 241.06453752 179.50892907 241.06498718 181.04634094 C241.06520861 181.80893626 241.06543004 182.57153159 241.06565818 183.35723586 C241.06960082 195.69633555 241.08704038 208.03537599 241.1103467 220.37445282 C241.13413178 233.07047984 241.14652584 245.76647722 241.14768863 258.46252686 C241.14860151 265.57962878 241.15425538 272.69665354 241.17250824 279.81373405 C241.18963661 286.51557649 241.19110872 293.21724838 241.18236923 299.91911507 C241.18160274 302.36790992 241.18588986 304.81671286 241.19582748 307.26548767 C241.28893916 331.65588364 239.33665287 355.32046511 221.89506531 374.15888977 C209.42293732 386.13683911 192.66489168 395.22109759 175.82475281 399.14717102 C175.14766769 399.32133041 174.47058258 399.49548981 173.77297974 399.67492676 C169.51103425 400.35760124 165.29906241 400.31166269 160.98905945 400.32417297 C159.51012459 400.33402977 159.51012459 400.33402977 158.00131226 400.34408569 C154.7458437 400.36376155 151.49042106 400.37546608 148.23490906 400.38545227 C146.56503842 400.39156556 146.56503842 400.39156556 144.86143303 400.39780235 C138.97363853 400.41863464 133.08586717 400.43295095 127.19804382 400.44233704 C121.11717353 400.45341997 115.03666728 400.48784998 108.95592594 400.52750874 C104.27790644 400.55363792 99.59997441 400.5620254 94.92188835 400.56561852 C92.67999743 400.57049082 90.43811058 400.58212302 88.19629097 400.60065651 C85.06051187 400.62497773 81.92568504 400.62409595 78.7898407 400.61714172 C77.40331802 400.63635681 77.40331802 400.63635681 75.98878479 400.65596008 C70.28325037 400.60985307 67.22526446 399.84168432 62.82475281 396.14717102 C56.33660031 389.07634463 55.53007781 379.78463318 55.88725281 370.58467102 C56.57264713 363.89012187 58.34288454 357.42833009 63.38334656 352.67842102 C68.23689995 349.28940618 72.70105843 348.99763327 78.41044617 348.98945618 C79.18164795 348.98437546 79.95284973 348.97929474 80.74742126 348.97406006 C82.42361248 348.96335785 84.09981798 348.95473708 85.77602959 348.94794083 C88.43863161 348.93612688 91.10107325 348.91666312 93.76361084 348.89482117 C101.3347988 348.83332129 108.90597335 348.77936572 116.4773407 348.74580383 C121.11047806 348.72471542 125.74332743 348.68929146 130.3762989 348.64504623 C132.13310387 348.63098762 133.88995985 348.62218699 135.64681816 348.61899185 C153.97890655 348.97947477 153.97890655 348.97947477 169.82475281 341.14717102 C176.5048412 332.00946986 179.28611381 323.10152529 179.21243286 311.87571716 C179.2178184 310.87940179 179.22320394 309.88308641 179.22875267 308.85657966 C179.24299144 305.53811377 179.23593847 302.22004907 179.22880554 298.90156555 C179.23451124 296.51417217 179.24147628 294.12678151 179.24960327 291.73939514 C179.26566843 285.93961134 179.26763966 280.13995206 179.26239037 274.34015073 C179.2583397 269.62315264 179.25980285 264.90618649 179.26513863 260.18918991 C179.26588705 259.51639713 179.26663547 258.84360435 179.26740657 258.15042391 C179.26893814 256.78339275 179.27047649 255.4163616 179.27202154 254.04933046 C179.28573215 241.24531315 179.28031916 228.44135703 179.26883633 215.63734113 C179.2589067 203.94087075 179.27184243 192.24455862 179.29577052 180.54811265 C179.32019293 168.51877616 179.32976161 156.48951328 179.32311779 144.46015251 C179.31963237 137.71436134 179.32181261 130.9686918 179.33936882 124.22291946 C179.35485769 117.87806425 179.3508604 111.53351068 179.33206367 105.1886673 C179.32838317 102.86474794 179.33147046 100.54080614 179.34194946 98.2169075 C179.35519761 95.03512407 179.34357722 91.85433372 179.32595825 88.67259216 C179.33556326 87.76138111 179.34516827 86.85017006 179.35506433 85.91134655 C179.24043314 75.79294034 175.83082913 66.53762061 168.82475281 59.14717102 C160.9955826 52.81720362 153.11133415 52.8463982 143.46366882 52.82832336 C142.23369675 52.81827774 141.00372467 52.80823212 139.73648071 52.79788208 C136.38159368 52.77237455 133.0268741 52.75546831 129.6719296 52.74245405 C126.15917788 52.72677116 122.6465107 52.69999752 119.13381958 52.67442322 C112.49004916 52.62772641 105.84626268 52.59093844 99.20241255 52.55775034 C91.6352318 52.51946447 84.06813613 52.47007135 76.50102723 52.41976619 C60.94233068 52.31658174 45.38358633 52.22727772 29.82475281 52.14717102 C29.8256746 52.89127983 29.82659639 53.63538864 29.82754612 54.4020462 C29.89676503 111.31713179 29.89917303 168.23208681 29.82475281 225.14717102 C29.82284895 226.6393205 29.82284895 226.6393205 29.82090664 228.16161442 C29.79034842 251.95497901 29.74231229 275.74815765 29.63924122 299.54133034 C29.63155223 301.32270424 29.62388048 303.10407822 29.6162262 304.88545227 C29.61058046 306.19880918 29.61058046 306.19880918 29.60482067 307.53869855 C29.57937532 313.70033951 29.56442981 319.86195272 29.55403137 326.02363586 C29.54127075 333.51851382 29.51482703 341.01318425 29.47024006 348.50794333 C29.44792421 352.31760957 29.43181411 356.12702423 29.43285179 359.93676186 C29.43372868 364.05709517 29.40372904 368.17662878 29.37065125 372.29682922 C29.37568192 373.49277962 29.3807126 374.68873001 29.38589573 375.92092133 C29.28677106 383.80682274 28.17206193 389.17399947 22.96537781 395.35420227 C22.34147156 395.88400696 21.71756531 396.41381165 21.07475281 396.95967102 C20.46115906 397.50236633 19.84756531 398.04506165 19.21537781 398.60420227 C12.48734496 402.94664177 6.26893073 403.67269311 -1.55024719 403.58467102 C-2.47837219 403.57782288 -3.40649719 403.57097473 -4.36274719 403.56391907 C-12.63474895 403.3694979 -18.66174466 402.06263057 -25.11274719 396.70967102 C-29.87942625 390.78743341 -31.29810731 386.54543086 -31.30667496 379.0138073 C-31.3105161 377.7475375 -31.31435725 376.4812677 -31.31831479 375.17662609 C-31.31753454 373.76860414 -31.31665576 372.36058225 -31.31568909 370.95256042 C-31.31827271 369.45893182 -31.32128586 367.9653039 -31.32469249 366.47167695 C-31.33276622 362.36124572 -31.33455227 358.25083195 -31.33528996 354.14039373 C-31.33713989 349.70941543 -31.34468698 345.27844621 -31.35142517 340.84747314 C-31.3650122 331.15520016 -31.37103394 321.46293131 -31.37543583 311.77065039 C-31.37819792 305.71875896 -31.38243524 299.66686914 -31.38694 293.61497879 C-31.39913371 276.85958646 -31.40943246 260.10419542 -31.41281509 243.34879875 C-31.41303466 242.27621197 -31.41325423 241.20362519 -31.41348045 240.09853578 C-31.41369872 239.02337666 -31.413917 237.94821753 -31.41414189 236.84047782 C-31.41458536 234.66178441 -31.41503192 232.483091 -31.41548157 230.30439758 C-31.415703 229.22368953 -31.41592443 228.14298148 -31.41615257 227.0295247 C-31.42009976 209.5219285 -31.43755094 192.01437395 -31.46084109 174.50679384 C-31.4845589 156.53264002 -31.49701716 138.55850708 -31.49818301 120.58433735 C-31.49909959 110.49231202 -31.50484748 100.40034093 -31.52300262 90.30833054 C-31.53840947 81.71369968 -31.54352066 73.11913983 -31.53526452 64.52449779 C-31.53135995 60.14050077 -31.53227818 55.75664671 -31.54632187 51.37266731 C-31.5590724 47.3555688 -31.55785322 43.33872049 -31.54573116 39.32162227 C-31.54377614 37.87204217 -31.54684357 36.42244428 -31.55557552 34.97288917 C-31.60759769 25.7494155 -31.33849987 17.23558607 -26.35884094 9.22529602 C-23.82130225 6.81032181 -21.39442238 5.40982748 -18.23774719 3.89717102 C-17.21809875 3.39701477 -16.19845032 2.89685852 -15.14790344 2.38154602 C-10.05958821 0.26865822 -5.48743656 0.01842873 0 0 Z " fill="#D5B162" transform="translate(736.1752471923828,4.8528289794921875)"/>
<path d="M0 0 C1.22465469 -0.00686325 2.44930939 -0.0137265 3.71107483 -0.02079773 C7.02964772 -0.03582613 10.34765225 -0.0375977 13.66621614 -0.03185534 C16.45640268 -0.02873415 19.24654002 -0.0348883 22.0367195 -0.04089409 C28.63031673 -0.05487503 35.22378423 -0.05343291 41.81738281 -0.04199219 C48.57428858 -0.03052572 55.33079672 -0.04457636 62.08765012 -0.07138866 C67.93018022 -0.09368754 73.77258681 -0.10015117 79.61515635 -0.09431225 C83.08642309 -0.09097406 86.55743541 -0.09314417 90.02866554 -0.11056328 C117.6852528 -0.23628504 117.6852528 -0.23628504 131.02807617 4.40405273 C131.84751709 4.68428787 132.66695801 4.96452301 133.51123047 5.25325012 C152.97132624 12.51007161 170.60620645 24.49136077 180.02807617 43.40405273 C185.214083 55.27162235 187.33883332 67.64497851 187.28877258 80.52775574 C187.29259813 81.59167252 187.29642368 82.65558931 187.30036515 83.751746 C187.31061525 87.28718553 187.30671821 90.82246022 187.30273438 94.35791016 C187.30708533 96.90496978 187.31226976 99.45202809 187.31822205 101.99908447 C187.33019793 108.18259496 187.33276816 114.36604552 187.33042178 120.54956534 C187.3286331 125.58111173 187.33040003 130.612645 187.33464622 135.64418983 C187.33524141 136.36244916 187.3358366 137.08070849 187.33644983 137.82073325 C187.33766169 139.28028168 187.33887582 140.7398301 187.3400922 142.19937853 C187.35095134 155.86624254 187.34881329 169.53308183 187.34270736 183.19994722 C187.33754275 195.6720994 187.34878449 208.14417337 187.36780558 220.61631008 C187.38723199 233.45368383 187.39543139 246.29102068 187.39168233 259.12840921 C187.38977715 266.32311694 187.39219047 273.51775818 187.40639687 280.71245384 C187.41963202 287.48328677 187.41698573 294.25393887 187.40398598 301.02478027 C187.40163089 303.49979519 187.40431624 305.97482123 187.4126091 308.44982338 C187.48132256 330.56433714 186.34415463 351.34520866 172.02807617 369.40405273 C171.52920898 370.07823242 171.0303418 370.75241211 170.51635742 371.44702148 C163.02023278 380.90686643 152.29530028 387.09076025 141.59057617 392.27905273 C140.86515625 392.63604248 140.13973633 392.99303223 139.39233398 393.36083984 C136.96938316 394.483135 134.52216195 395.44939113 132.02807617 396.40405273 C131.13001755 396.75175217 130.23195892 397.0994516 129.3066864 397.45768738 C116.21601286 401.69783607 102.62215019 400.97374943 89.01284504 400.90842319 C85.35985899 400.89440387 81.70689741 400.90105125 78.05389404 400.90455627 C71.9281818 400.90724388 65.80266715 400.89390409 59.67700195 400.87060547 C52.62235485 400.84395716 45.5680367 400.84226915 38.51335645 400.85399383 C31.68481367 400.86481526 24.85638841 400.85855352 18.02785492 400.84443855 C15.13976979 400.83872123 12.25177186 400.83872741 9.36368561 400.84350395 C5.32487939 400.84921318 1.28655447 400.82985032 -2.75219727 400.80810547 C-4.52299904 400.81485794 -4.52299904 400.81485794 -6.32957458 400.82174683 C-13.65239029 400.75655305 -20.02244678 399.70899508 -26.97192383 397.40405273 C-27.63431942 397.1868328 -28.29671501 396.96961287 -28.9791832 396.74581051 C-50.0985587 389.42921887 -68.54875451 376.6831143 -78.65942383 356.27905273 C-85.25148947 340.29334019 -85.54928 325.31611007 -85.48950195 308.23999023 C-85.49493098 305.62322603 -85.50205799 303.00646489 -85.51074219 300.38970947 C-85.52841335 294.05510641 -85.52473884 287.72069424 -85.51309162 281.38608408 C-85.50401223 276.23212541 -85.50285263 271.07821977 -85.50718689 265.92425537 C-85.50779982 265.18724596 -85.50841275 264.45023656 -85.50904426 263.69089353 C-85.51032332 262.19309376 -85.51162018 260.69529401 -85.51293463 259.19749427 C-85.52430701 245.19341178 -85.51127944 231.18943448 -85.48973316 217.18536925 C-85.47186521 205.2015705 -85.47497026 193.21792681 -85.4934082 181.23413086 C-85.51487426 167.27591976 -85.52320869 153.31780057 -85.51095915 139.35957527 C-85.50968512 137.86766689 -85.50842763 136.3757585 -85.50718689 134.8838501 C-85.50656979 134.15003974 -85.50595269 133.41622939 -85.50531688 132.66018236 C-85.50188113 127.51983115 -85.50765375 122.37953885 -85.5171051 117.23919678 C-85.52957618 110.30491267 -85.52054071 103.37092414 -85.49752808 96.4366684 C-85.49226936 93.90199006 -85.49370567 91.36728697 -85.50257874 88.83261871 C-85.55466612 72.43303311 -85.16218834 56.86960061 -77.28442383 42.02905273 C-76.77939331 41.04545776 -76.77939331 41.04545776 -76.26416016 40.04199219 C-73.03782051 34.0305786 -68.86678125 29.14443734 -63.97192383 24.40405273 C-63.43180664 23.82268555 -62.89168945 23.24131836 -62.33520508 22.64233398 C-60.97192383 21.40405273 -60.97192383 21.40405273 -58.97192383 21.40405273 C-58.97192383 20.74405273 -58.97192383 20.08405273 -58.97192383 19.40405273 C-40.0179451 8.41812692 -22.40660194 -0.0896577 0 0 Z M-16.97192383 61.40405273 C-23.08251741 71.45127872 -25.28234777 80.7353902 -25.23262024 92.36506653 C-25.23644579 93.32800792 -25.24027133 94.29094931 -25.24421281 95.28307074 C-25.25447738 98.48857511 -25.25056311 101.69389816 -25.24658203 104.89941406 C-25.25093215 107.20636662 -25.2561163 109.51331774 -25.2620697 111.82026672 C-25.27543929 118.07242255 -25.27604058 124.32451785 -25.2735064 130.57668519 C-25.27243522 135.80265592 -25.2773239 141.02861447 -25.28211182 146.25458258 C-25.29383365 159.29229499 -25.29298598 172.32997299 -25.28655501 185.36768761 C-25.28138837 196.66899786 -25.29263702 207.97022185 -25.31165323 219.27151505 C-25.3310645 230.89743489 -25.3389909 242.5233103 -25.33552998 254.14924639 C-25.33371989 260.66757544 -25.33632601 267.1858255 -25.35024452 273.70414162 C-25.36284906 279.83637277 -25.36085378 285.96843172 -25.34783363 292.10066032 C-25.34547396 294.34514551 -25.34818057 296.58964291 -25.35645676 298.83411407 C-25.6709493 321.54178047 -25.6709493 321.54178047 -15.37426758 341.18530273 C-7.28629711 348.70214089 2.55002981 349.55105786 13.14770508 349.56518555 C14.04614136 349.57015045 14.94457764 349.57511536 15.87023926 349.58023071 C18.83171365 349.59479032 21.79313442 349.60164493 24.75463867 349.60717773 C25.77121929 349.61000511 26.78779991 349.61283249 27.835186 349.61574554 C33.21768197 349.63071534 38.6001513 349.63995801 43.98266602 349.64428711 C49.51693173 349.64976016 55.05094998 349.67377 60.58513832 349.70225906 C64.8627898 349.72097361 69.1403828 349.72609578 73.41807175 349.72762299 C75.45682499 349.73063151 77.49557765 349.73859846 79.53429031 349.75180817 C99.13542657 350.32453454 99.13542657 350.32453454 116.34838867 342.12670898 C124.42462723 333.84386898 126.4895435 323.21859065 126.41575623 312.01234436 C126.42114176 311.01517456 126.4265273 310.01800476 126.43207604 308.99061769 C126.44629446 305.67525734 126.43926694 302.36029972 126.43212891 299.04492188 C126.43783564 296.65738099 126.44480107 294.26984284 126.45292664 291.88230896 C126.46898145 286.08600434 126.47096564 280.28982434 126.46571373 274.49350221 C126.46166124 269.77938845 126.46312835 265.06530663 126.46846199 260.35119438 C126.46921041 259.67853709 126.46995883 259.0058798 126.47072994 258.31283895 C126.47226152 256.94604933 126.47379986 255.57925971 126.4753449 254.21247011 C126.48905085 241.41512486 126.48364554 228.61784086 126.47215969 215.82049703 C126.46222787 204.13055674 126.47517043 192.44077474 126.49909388 180.75085885 C126.523516 168.72601075 126.53308521 156.70123628 126.52644116 144.67636389 C126.52295602 137.93394105 126.52513425 131.19163991 126.54269218 124.44923592 C126.5581806 118.10847126 126.55418427 111.76800845 126.53538704 105.42725563 C126.53170656 103.10494799 126.53479374 100.78261788 126.54527283 98.46033096 C126.55852102 95.28079034 126.5469006 92.10224347 126.52928162 88.92274475 C126.53888662 88.01221582 126.54849163 87.10168689 126.5583877 86.16356617 C126.44812986 76.4381215 123.27490298 66.98052311 116.53588867 59.81811523 C109.36958893 53.04810856 101.24895599 51.95307271 91.70996094 52 C90.72009186 51.99313675 89.73022278 51.9862735 88.71035767 51.97920227 C85.46325015 51.96101604 82.21662956 51.96476008 78.96948242 51.97045898 C76.69701482 51.96589338 74.42454859 51.96058669 72.15208435 51.95457458 C67.39869564 51.94565959 62.64547509 51.94804847 57.89208984 51.95800781 C51.81839984 51.96949715 45.74529126 51.94927771 39.67167759 51.92009068 C34.98146413 51.90169378 30.29138912 51.9020281 25.60114861 51.9077282 C23.36258058 51.90788097 21.12400292 51.901873 18.88546944 51.88943672 C15.74847658 51.87446227 12.61254686 51.88525159 9.47558594 51.90234375 C8.56255203 51.89267578 7.64951813 51.88300781 6.70881653 51.87304688 C-1.76166472 51.96908107 -11.47271722 54.4675535 -16.97192383 61.40405273 Z " fill="#D5B262" transform="translate(442.971923828125,4.595947265625)"/>
<path d="M0 0 C1.13888672 0.0930542 1.13888672 0.0930542 2.30078125 0.18798828 C14.80109875 1.25795854 21.91506769 3.46518664 30.82421875 12.390625 C37.01352434 19.81334696 39.89301486 27.78506099 42.80859375 36.92578125 C43.25490191 38.29750235 43.70217503 39.66890982 44.15034485 41.0400238 C45.34385143 44.70016613 46.5242305 48.36441768 47.70219421 52.02958679 C48.94282538 55.88139013 50.19613073 59.72906504 51.44824219 63.57714844 C53.66359243 70.39092658 55.8696183 77.20767123 58.07054329 84.02612114 C60.69514157 92.15607564 63.33917422 100.27967436 65.98565674 108.40252686 C66.76672726 110.80137325 67.54631812 113.2006968 68.32568359 115.60009766 C74.3537196 134.14591621 80.46282106 152.66515592 86.5625 171.1875 C86.84402672 172.04239265 87.12555344 172.89728531 87.41561127 173.7780838 C87.98495067 175.50694497 88.55429297 177.23580519 89.12363815 178.96466446 C90.54469713 183.27981782 91.96572603 187.59498107 93.38671875 191.91015625 C93.66788544 192.76396881 93.94905212 193.61778137 94.23873901 194.49746704 C101.91266185 217.80164694 109.56116475 241.11415411 117.20521545 264.42814636 C120.03080501 273.04588799 122.85845374 281.66295207 125.68698692 290.27972794 C130.79823438 305.85089085 135.90411273 321.42380204 141 337 C141.32478333 337.99261841 141.64956665 338.98523682 141.98419189 340.00793457 C143.65449116 345.11453058 145.32167429 350.22211745 146.98236084 355.33184814 C147.44403039 356.75138312 147.9066016 358.17062524 148.37017822 359.58953857 C148.98261528 361.46504438 149.59104783 363.34185648 150.19921875 365.21875 C150.52752686 366.22873047 150.85583496 367.23871094 151.1940918 368.27929688 C153.34771609 375.54981766 154.25311838 382.86163708 151.21484375 389.98828125 C145.9926535 398.63595964 137.25268907 402.11395374 128 405 C127.04673828 405.30357422 127.04673828 405.30357422 126.07421875 405.61328125 C122.92069871 406.20122566 119.82955862 406.21162205 116.625 406.25 C115.33851563 406.27578125 114.05203125 406.3015625 112.7265625 406.328125 C105.73495295 405.71251158 101.46833938 402.43215215 97.03515625 397.19140625 C92.35235878 389.84813267 90.14112152 381.23867058 87.5 373 C86.8055817 370.89120187 86.10916914 368.78305952 85.41088867 366.67553711 C83.60064543 361.1938713 81.81728315 355.70385601 80.04095459 350.21112061 C78.4231866 345.22065494 76.78331539 340.23750114 75.14453125 335.25390625 C72.52600248 327.27937598 69.92420731 319.29953861 67.33203125 311.31640625 C62.87067008 297.57975318 58.36568902 283.85751354 53.85845947 270.13586426 C51.60383395 263.27190206 49.35048568 256.40752064 47.09765625 249.54296875 C46.87821602 248.87432423 46.65877579 248.2056797 46.43268585 247.51677322 C42.25502305 234.78612517 38.09280613 222.05046195 33.9375 209.3125 C28.22776728 191.80987357 22.5004235 174.313069 16.76277542 156.81957626 C15.70754059 153.60216691 14.65248161 150.3846999 13.59741211 147.16723633 C11.91164363 142.02652256 10.22586773 136.88581122 8.54003906 131.74511719 C8.22668499 130.78958623 8.22668499 130.78958623 7.90700054 129.81475163 C6.84189501 126.56692988 5.77668637 123.31914199 4.71130371 120.07141113 C2.1995086 112.41440605 -0.31123979 104.75705984 -2.82037354 97.09918213 C-3.59643497 94.7313254 -4.37291269 92.36360505 -5.14984131 89.99603271 C-12.5751974 67.36724681 -12.5751974 67.36724681 -16 56 C-19.22193794 63.70189475 -21.91008275 71.52847049 -24.4921875 79.46484375 C-24.91858109 80.76746563 -25.34525959 82.06999427 -25.77220154 83.37243652 C-26.90836618 86.84122192 -28.04049688 90.31131107 -29.17178726 93.78168869 C-30.3572289 97.41584996 -31.54641557 101.0487856 -32.73510742 104.68188477 C-35.29118425 112.49677895 -37.84187759 120.31342267 -40.39054108 128.1307373 C-41.2912275 130.89321969 -42.19228467 133.65558114 -43.09326172 136.41796875 C-45.66387795 144.3013638 -48.23108344 152.18585881 -50.79385376 160.07180786 C-53.46914012 168.30354172 -56.15386815 176.53211364 -58.84765625 184.7578125 C-66.78471343 208.97215472 -66.78471343 208.97215472 -74.5859375 233.23046875 C-74.88287506 234.1639061 -75.17981262 235.09734344 -75.48574829 236.05906677 C-76.09637171 237.97903902 -76.70697737 239.89901691 -77.31756592 241.81900024 C-85.13451626 266.39068847 -93.17815204 290.88612822 -101.25 315.375 C-101.54777847 316.27864792 -101.84555695 317.18229584 -102.15235901 318.11332703 C-103.03532309 320.79272944 -103.91849287 323.47206394 -104.80175781 326.15136719 C-105.23381971 327.46221157 -105.23381971 327.46221157 -105.67461014 328.79953766 C-107.10410092 333.13441433 -108.53686557 337.4681643 -109.97613525 341.79980469 C-112.51211421 349.43620781 -115.03503558 357.07487574 -117.47157669 364.74369621 C-118.52706064 368.06018132 -119.59610366 371.37221726 -120.66667938 374.68385696 C-121.16154116 376.22716729 -121.64993235 377.77257081 -122.13111115 379.32020187 C-125.27401994 389.42167056 -128.78511028 397.45084088 -136.9375 404.5625 C-144.71763409 408.35640808 -155.94892338 406.60917301 -163.9375 404.375 C-173.1620115 401.12870351 -180.42976877 396.2904074 -185.3125 387.6875 C-187.05559725 380.87357438 -185.99467067 375.35230035 -184 368.7578125 C-183.78194199 368.02766937 -183.56388397 367.29752625 -183.33921814 366.54525757 C-179.99149589 355.49398406 -176.24607106 344.56753543 -172.5625 333.625 C-167.08368038 317.32958977 -161.6863387 301.01080977 -156.375 284.66015625 C-151.40877613 269.37244427 -146.41006562 254.09592632 -141.37109375 238.83203125 C-141.05088005 237.86201487 -140.73066635 236.89199848 -140.40074921 235.89258766 C-138.75788689 230.9166415 -137.11430972 225.94093184 -135.4703064 220.96536255 C-131.95172694 210.31625425 -128.43680388 199.66593868 -124.921875 189.015625 C-124.40086495 187.43705813 -124.40086495 187.43705813 -123.86932945 185.82660103 C-118.36414199 169.14601857 -112.87421734 152.46051509 -107.40316772 135.76870728 C-106.19424329 132.08305827 -104.9828372 128.39823366 -103.77075195 124.71362305 C-99.72115916 112.39575091 -95.69445524 100.07123189 -91.71283436 87.73121548 C-89.27084401 80.16431087 -86.8172136 72.6012349 -84.35685253 65.04028416 C-82.55754455 59.50789219 -80.77280312 53.9710867 -78.99895191 48.43048382 C-77.89160345 44.98425407 -76.76995619 41.54280051 -75.64445686 38.10246086 C-75.12414005 36.50232378 -74.60961951 34.9002879 -74.10149956 33.29623604 C-66.91815811 10.65013219 -66.91815811 10.65013219 -56.38671875 4.953125 C-39.0496223 -1.9703636 -18.26669978 -1.6039974 0 0 Z " fill="#D5B262" transform="translate(1201,3)"/>
<path d="M0 0 C1.01038501 -0.00467997 2.02077002 -0.00935994 3.06177276 -0.01418173 C6.43958593 -0.02612569 9.81699294 -0.01667662 13.19480896 -0.00723267 C15.61957536 -0.01129859 18.04433991 -0.01664059 20.46910095 -0.02316284 C26.36640897 -0.0354192 32.26361191 -0.03362969 38.16091699 -0.02492492 C42.95428195 -0.01814315 47.74761482 -0.01723378 52.5409832 -0.02049637 C53.22381666 -0.02095607 53.90665012 -0.02141577 54.6101755 -0.0218894 C55.99742939 -0.02284859 57.38468326 -0.02382123 58.77193712 -0.02480717 C71.7718009 -0.03335624 84.77160115 -0.02353419 97.77145451 -0.00740607 C108.92220731 0.0059997 120.07286643 0.00366598 131.22361755 -0.01016235 C144.17927385 -0.02622152 157.13487453 -0.03253549 170.0905394 -0.02332556 C171.47231574 -0.02236993 172.85409209 -0.02142682 174.23586845 -0.02049637 C175.25560753 -0.01980213 175.25560753 -0.01980213 176.29594739 -0.01909386 C181.08321236 -0.01650521 185.870442 -0.02087222 190.65770149 -0.02793503 C197.10177435 -0.03723343 203.54571186 -0.03060138 209.98976898 -0.01325226 C212.35609836 -0.0092821 214.72244262 -0.01043046 217.0887661 -0.01704025 C220.31605253 -0.02522454 223.54276949 -0.01497132 226.77001953 0 C228.17823804 -0.01003825 228.17823804 -0.01003825 229.61490542 -0.02027929 C236.35653409 0.04048072 240.6085407 1.21826862 245.57151794 6.06845093 C251.63588632 14.10227656 250.58440021 25.64851495 249.50901794 35.13876343 C248.32194888 41.3920737 245.94984638 45.74036442 240.82151794 49.69345093 C235.63138912 52.61289839 230.96690228 52.51995144 225.10569763 52.49447632 C224.22729218 52.49462234 223.34888672 52.49476837 222.44386292 52.49491882 C219.54368104 52.49422278 216.64356358 52.48644479 213.74339294 52.47860718 C211.731288 52.4767419 209.71918259 52.47531852 207.70707703 52.47431946 C202.41346481 52.47050291 197.11988006 52.46067995 191.82627869 52.44961548 C186.42365389 52.43938285 181.02102464 52.43481787 175.61839294 52.42977905 C165.01942255 52.41905693 154.42047253 52.40199082 143.82151794 52.38095093 C143.82265711 53.07753968 143.82379627 53.77412843 143.82496995 54.49182594 C143.89211704 95.78541456 143.94358413 137.07899685 143.97471393 178.3726291 C143.97846601 183.33178334 143.98234898 188.29093747 143.98631287 193.25009155 C143.9870998 194.23736194 143.98788673 195.22463232 143.98869751 196.24181999 C144.00174828 212.22356821 144.02540032 228.20528402 144.05297633 244.18701302 C144.08103965 260.58805926 144.09769617 276.98908855 144.10378343 293.39015782 C144.10789794 303.50893754 144.12088926 313.62762566 144.14526735 323.74637718 C144.16113596 330.6869743 144.16591575 337.62752412 144.16202208 344.56813805 C144.16010229 348.57136646 144.16302704 352.57443491 144.17913437 356.57763481 C144.19379033 360.24701465 144.19443365 363.91612775 144.18421463 367.58552016 C144.18235753 369.53264203 144.19524511 371.47976101 144.20876187 373.42683685 C144.1668863 381.64971685 143.29846405 388.92244793 139.25901794 396.19345093 C129.94529979 404.55191594 118.72243045 404.96285292 106.7809906 404.50839233 C99.01754882 404.00346876 93.3167226 401.67232617 87.47776794 396.58798218 C82.02242266 389.31847726 82.40116019 381.4428016 82.46075439 372.73898315 C82.45944482 371.35439359 82.4568156 369.96980475 82.4529869 368.58521986 C82.44629977 364.79507291 82.45824998 361.00518177 82.47332108 357.21506739 C82.48630288 353.12246385 82.48189047 349.0298742 82.47961426 344.93725586 C82.47804288 337.85136002 82.48743793 330.7655472 82.50432777 323.67967224 C82.52873156 313.43475949 82.53652446 303.1898868 82.54029175 292.94494814 C82.54685406 276.32235601 82.56680928 259.69980811 82.59519958 243.07723999 C82.62274583 226.93205995 82.64397665 210.78689192 82.65672302 194.64169312 C82.65751119 193.64613838 82.65829936 192.65058365 82.65911142 191.62486058 C82.66302659 186.63034594 82.6668177 181.6358312 82.67054713 176.64131641 C82.7016362 135.22116383 82.75446603 93.80105991 82.82151794 52.38095093 C81.15354408 52.38761276 81.15354408 52.38761276 79.45187378 52.39440918 C68.96145565 52.43499052 58.47105349 52.46495229 47.98057461 52.48457527 C42.58759725 52.49500284 37.19468338 52.50914337 31.80174255 52.53182983 C26.59516846 52.55359471 21.38865535 52.56552728 16.18203926 52.57070541 C14.19777021 52.57439461 12.21350442 52.58159869 10.2292614 52.59241104 C7.44540627 52.60697431 4.66180166 52.60892684 1.87791443 52.60800171 C1.06151489 52.61519226 0.24511536 52.62238281 -0.59602356 52.62979126 C-6.58658893 52.60831505 -11.59206427 51.8846822 -16.86598206 48.81845093 C-24.0915874 41.20227232 -24.54625569 31.31924658 -24.39723206 21.38095093 C-24.138612 14.46286453 -22.3233648 8.24000685 -17.17848206 3.38095093 C-11.36021109 0.26505487 -6.52837798 -0.04664728 0 0 Z " fill="#D4B162" transform="translate(1727.178482055664,4.619049072265625)"/>
<path d="M0 0 C9.75076453 7.06647446 15.55394008 16.56074549 17.54296875 28.45703125 C18.59243455 38.97187124 15.81139204 49.0134453 9.54296875 57.45703125 C8.67671875 58.75640625 8.67671875 58.75640625 7.79296875 60.08203125 C0.91053548 67.34682192 -8.46160297 71.9802786 -18.4375 72.66015625 C-31.00525837 72.84385065 -40.39592902 70.11679197 -49.65625 61.3828125 C-58.62777073 51.8806288 -60.9555004 42.32994177 -60.7421875 29.5859375 C-60.37874859 21.6249817 -57.25235465 14.75089322 -52.45703125 8.45703125 C-51.86535156 7.65394531 -51.27367187 6.85085938 -50.6640625 6.0234375 C-48.34399999 3.3255949 -46.14797086 1.65995646 -43.14453125 -0.23046875 C-42.24089844 -0.81183594 -41.33726563 -1.39320313 -40.40625 -1.9921875 C-28.07240453 -8.47766651 -11.64300822 -7.31158703 0 0 Z " fill="#D5B262" transform="translate(1205.45703125,250.54296875)"/>
</svg>
